<svg xmlns='http://www.w3.org/2000/svg' viewBox='0 0 350.0 189.0'>
 <path d="M 323 8 328 13 328 19 322 20 316 22 310 24 304 26 298 28 292 29 286 31 280 33 274 35 268 38 262 39 256 42 250 43 244 46 238 47 232 49 226 51 220 52 214 55 208 57 202 63 198 69 201 75 205 81 211 82 217 83 223 83 229 81 235 79 241 77 247 75 253 73 259 70 265 68 271 66 277 64 283 62 289 60 295 58 301 56 307 54 313 51 319 49 325 47 331 45 337 43 343 42 345 47 342 52 336 54 330 57 324 59 318 61 312 64 306 66 300 69 294 71 288 73 282 76 276 78 270 81 264 83 258 86 252 88 246 91 240 93 234 96 228 98 222 101 216 103 210 105 204 106 198 107 192 106 186 105 180 104 174 103 168 102 164 97 158 101 152 105 146 107 140 110 141 116 138 122 137 128 136 134 134 140 130 146 126 152 121 158 115 164 109 167 103 171 97 174 91 176 85 178 79 179 73 179 67 179 61 179 55 178 49 176 43 174 37 171 31 169 26 164 21 159 16 153 13 147 10 141 9 135 9 129 9 123 10 117 11 111 13 105 17 99 21 93 27 87 33 82 39 78 45 74 51 72 57 70 63 68 69 67 75 67 81 66 87 67 93 68 99 69 105 71 111 74 117 77 123 81 129 77 135 75 141 74 147 73 153 73 159 71 165 65 170 59 175 53 180 48 186 46 192 44 198 43 204 41 210 39 216 38 222 36 228 34 234 33 240 31 246 29 252 28 258 26 264 24 270 23 276 21 282 20 288 18 294 16 300 15 306 13 312 11 L 318 10 Z" stroke='#000' stroke-width='1' fill='none'/>
 </svg>