<svg xmlns='http://www.w3.org/2000/svg' viewBox='0 0 350.0 350.0'>
 <path d="M 295 15 302 15 309 15 316 15 323 15 330 17 337 22 340 29 341 36 341 43 341 50 340 57 339 64 337 71 336 78 334 85 331 92 329 99 327 105 322 112 318 119 314 126 310 133 305 140 300 147 295 154 289 161 283 168 276 175 270 182 263 188 257 194 250 198 243 204 236 209 230 215 225 222 221 229 218 236 217 243 216 250 216 257 217 264 217 271 215 278 208 283 201 290 194 296 187 302 180 308 173 313 166 317 159 322 152 326 145 330 138 332 137 325 137 318 137 311 139 304 137 297 137 290 137 283 137 276 139 270 146 265 153 260 159 254 158 247 154 245 149 251 142 258 135 262 129 269 124 276 118 283 113 290 106 294 101 301 96 307 89 310 82 313 75 314 68 317 61 320 54 326 47 328 40 327 33 328 26 331 20 332 23 325 23 318 25 311 27 304 27 297 27 290 33 285 35 278 37 271 42 265 47 258 50 251 57 245 60 238 67 233 73 229 80 225 87 221 88 214 92 207 99 200 106 199 109 194 102 193 95 192 88 194 82 201 78 208 73 215 66 216 59 216 52 216 45 216 38 215 31 216 24 216 17 217 10 218 8 212 11 205 16 198 19 191 24 184 29 177 33 170 39 163 45 156 50 149 57 142 63 135 69 130 76 131 83 132 90 132 97 132 104 131 111 130 118 128 125 124 132 119 139 113 146 108 153 103 158 97 164 94 166 87 172 82 179 75 186 69 193 64 200 58 207 53 214 48 221 44 228 40 235 36 242 32 249 29 256 28 263 23 270 21 277 19 284 17 L 291 17 Z" stroke='#000' stroke-width='1' fill='none'/>
 </svg>